<?xml version="1.0" encoding="UTF-8" standalone="no"?>
<!-- Created with Inkscape (http://www.inkscape.org/) -->

<svg
   xmlns:dc="http://purl.org/dc/elements/1.1/"
   xmlns:cc="http://creativecommons.org/ns#"
   xmlns:rdf="http://www.w3.org/1999/02/22-rdf-syntax-ns#"
   xmlns:svg="http://www.w3.org/2000/svg"
   xmlns="http://www.w3.org/2000/svg"
   xmlns:xlink="http://www.w3.org/1999/xlink"
   xmlns:sodipodi="http://sodipodi.sourceforge.net/DTD/sodipodi-0.dtd"
   xmlns:inkscape="http://www.inkscape.org/namespaces/inkscape"
   width="480"
   height="640"
   id="svg3649"
   version="1.1"
   inkscape:version="0.47 r22583"
   sodipodi:docname="backgrounds.svg">
  <defs
     id="defs3651">
    <inkscape:perspective
       sodipodi:type="inkscape:persp3d"
       inkscape:vp_x="0 : 526.18109 : 1"
       inkscape:vp_y="0 : 1000 : 0"
       inkscape:vp_z="744.09448 : 526.18109 : 1"
       inkscape:persp3d-origin="372.04724 : 350.78739 : 1"
       id="perspective3657" />
    <inkscape:perspective
       id="perspective3727"
       inkscape:persp3d-origin="0.5 : 0.33333333 : 1"
       inkscape:vp_z="1 : 0.5 : 1"
       inkscape:vp_y="0 : 1000 : 0"
       inkscape:vp_x="0 : 0.5 : 1"
       sodipodi:type="inkscape:persp3d" />
    <inkscape:perspective
       id="perspective4349"
       inkscape:persp3d-origin="0.5 : 0.33333333 : 1"
       inkscape:vp_z="1 : 0.5 : 1"
       inkscape:vp_y="0 : 1000 : 0"
       inkscape:vp_x="0 : 0.5 : 1"
       sodipodi:type="inkscape:persp3d" />
    <inkscape:perspective
       id="perspective4423"
       inkscape:persp3d-origin="0.5 : 0.33333333 : 1"
       inkscape:vp_z="1 : 0.5 : 1"
       inkscape:vp_y="0 : 1000 : 0"
       inkscape:vp_x="0 : 0.5 : 1"
       sodipodi:type="inkscape:persp3d" />
    <inkscape:perspective
       id="perspective4580"
       inkscape:persp3d-origin="0.5 : 0.33333333 : 1"
       inkscape:vp_z="1 : 0.5 : 1"
       inkscape:vp_y="0 : 1000 : 0"
       inkscape:vp_x="0 : 0.5 : 1"
       sodipodi:type="inkscape:persp3d" />
    <inkscape:perspective
       id="perspective4859"
       inkscape:persp3d-origin="0.5 : 0.33333333 : 1"
       inkscape:vp_z="1 : 0.5 : 1"
       inkscape:vp_y="0 : 1000 : 0"
       inkscape:vp_x="0 : 0.5 : 1"
       sodipodi:type="inkscape:persp3d" />
    <clipPath
       clipPathUnits="userSpaceOnUse"
       id="clipPath4865">
      <rect
         style="fill:#999999;fill-opacity:1;stroke:none"
         id="rect4867"
         width="321.22852"
         height="197.9899"
         x="212.13203"
         y="300.80869"
         ry="1.2463979" />
    </clipPath>
    <inkscape:perspective
       id="perspective2858"
       inkscape:persp3d-origin="0.5 : 0.33333333 : 1"
       inkscape:vp_z="1 : 0.5 : 1"
       inkscape:vp_y="0 : 1000 : 0"
       inkscape:vp_x="0 : 0.5 : 1"
       sodipodi:type="inkscape:persp3d" />
  </defs>
  <sodipodi:namedview
     id="base"
     pagecolor="#ffffff"
     bordercolor="#666666"
     borderopacity="1.0"
     inkscape:pageopacity="0.0"
     inkscape:pageshadow="2"
     inkscape:zoom="0.45254834"
     inkscape:cx="1255.0078"
     inkscape:cy="197.97344"
     inkscape:document-units="px"
     inkscape:current-layer="layer3"
     showgrid="false"
     inkscape:window-width="1280"
     inkscape:window-height="752"
     inkscape:window-x="0"
     inkscape:window-y="0"
     inkscape:window-maximized="1" />
  <metadata
     id="metadata3654">
    <rdf:RDF>
      <cc:Work
         rdf:about="">
        <dc:format>image/svg+xml</dc:format>
        <dc:type
           rdf:resource="http://purl.org/dc/dcmitype/StillImage" />
        <dc:title></dc:title>
      </cc:Work>
    </rdf:RDF>
  </metadata>
  <g
     inkscape:label="Background"
     inkscape:groupmode="layer"
     id="layer1"
     transform="translate(0,-412.36218)"
     style="display:inline">
    <image
       y="293.83936"
       x="212.40143"
       id="image4861"
       height="393.67126"
       width="525.10876"
       xlink:href="file:///Users/nicke/Desktop/imPulse/276420509_293b104a0e_o.jpeg"
       clip-path="url(#clipPath4865)"
       transform="matrix(2.0825893,0,0,2.1383929,355.30696,-292.46953)" />
    <path
       style="fill:#404040;fill-opacity:1;stroke:#ff06a5;stroke-width:2;stroke-linecap:butt;stroke-linejoin:miter;stroke-opacity:1"
       d="m 1398.8652,439.86295 0,47.58958 -17.0191,0 0,18.85001 -7.3027,0.86286 -0.8044,5.37622 -7.2409,1.72569 -0.3093,37.03626 10.335,5.37621 0.2477,30.46531 -11.3874,2.85406 0.5573,4.31425 11.1396,5.64172 0.5569,3.45141 -12.563,3.38502 1.4232,4.31428 8.6025,4.51336 -0.2476,4.31427 -9.2212,1.99121 0.3096,5.70809 6.1265,3.38502 0.2477,7.43382 -7.4883,1.99116 0.5568,4.24792 10.5829,3.71688 -0.061,19.31461 -7.6122,5.70809 -2.4134,-5.64174 -17.8856,-0.0662 1.6711,21.43852 -10.3352,-0.19912 c -0.4005,-0.25363 -17.8731,0.78249 -18.8137,-0.79646 0,-45.95702 -37.2389,-83.23203 -83.1142,-83.23203 -45.8757,0 -83.0525,37.27501 -83.0525,83.23203 0,6.53309 0.1783,8.93044 1.052,14.73484 l -40.7217,-1.59297 -3.6514,-48.18693 -64.4862,7.50017 -0.6807,62.25815 -13.182,0.86275 -16.9571,-13.27464 -0.7426,-58.74025 -4.2084,4.84523 -22.27931,-117.48057 -13.2438,122.3258 -6.4983,-8.29687 1.2378,52.50132 -10.0257,7.83202 -17.57597,2.65494 -16.89516,1.19471 -0.18556,-24.09355 -8.04533,0.53099 -2.35169,-69.55912 3.15623,-1.52657 -9.53061,-6.43824 -6.06492,-10.42057 -5.26041,-0.39827 -1.17585,-41.21774 6.74569,0.0662 0.18556,-4.71247 -15.7812,-4.57975 -6.25059,-7.30102 2.8468,-4.24792 -3.40378,-4.71252 -1.67095,-6.37179 1.98037,-2.85407 -2.16604,-2.65491 0.12377,-6.63735 c 0,0 6.79135,-2.34121 9.53061,-4.64611 2.7943,-2.35117 7.11702,-7.23467 7.11702,-7.23467 l 3.3419,-1.19474 -5.32229,-3.38501 -4.51775,3.38501 3.34191,1.06199 c 0,0 -3.99912,3.42297 -6.3125,5.1771 -2.35581,1.78633 -7.55021,3.05318 -7.55021,3.05318 l -0.12378,-3.51777 2.4136,-1.59298 -4.8272,-3.58414 -3.83699,3.6505 2.41359,1.39386 -0.18556,3.71688 c 0,0 -7.12769,-2.25157 -8.41665,-2.98678 -1.28897,-0.73522 -2.50864,-2.07448 -3.83699,-4.04876 l 2.8468,-1.46022 -4.82719,-4.18151 -4.57963,4.18151 3.83699,1.52658 c 0,0 0.52161,3.8149 3.52757,5.77449 3.00595,1.95959 11.69665,4.84523 11.69665,4.84523 l 0.61886,6.23908 -1.54717,3.25229 1.98039,3.38502 -0.80454,5.37627 -2.72302,5.44257 2.66114,3.38505 -4.39398,7.76566 -11.0159,5.30986 -1.05209,4.18151 8.16911,0 2.53737,41.3505 -8.231,0 -1.05206,9.49139 -9.53061,9.09311 5.63171,0.7965 3.34191,72.14768 -2.35171,-0.59739 -1.36152,-12.41177 -7.1789,-2.72131 0,-10.75247 -2.66113,0 0,10.81884 -2.59916,1.85844 -2.16605,-4.71248 -32.73826,6.30545 0,638.16697 649.56656,1.1947 0,-666.24284 -28.406,-0.46459 -3.5277,20.90756 -14.8529,-5.7081 -0.1861,-23.42975 11.3586,-2.2909 0.029,-4.28002 -6.9404,-3.71693 -0.072,-7.96476 6.4467,-0.22045 0.8423,-5.67387 -7.2694,-2.6013 0.557,-8.82762 5.5938,-0.60821 0.2763,-3.98239 -6.4271,-2.84334 0.557,-9.09315 5.0129,0 0.5809,-4.30354 -10.545,-5.65232 -0.8665,-29.93431 10.0258,-3.9824 0.2475,-33.58485 -1.3616,-1.99116 0.2476,-7.43382 -10.5208,-0.86286 0,-22.23502 -6.4361,0 0,-47.58958 -2.9707,0 -2e-4,7e-5 z M 884.58362,573.33947 c 0.98803,-0.0151 1.7646,0.86555 1.79472,1.92484 l 0.61889,21.2394 c 0.0301,1.05925 -0.74483,1.91068 -1.73285,1.9248 l -5.50796,0.0662 c -0.98803,0.0152 -1.7646,-0.79919 -1.79472,-1.85844 l -0.61888,-21.23943 c -0.0301,-1.05922 0.74482,-1.91069 1.73284,-1.92481 l 5.50796,-0.13287 0,1.1e-4 0,2e-4 z m 379.98658,89.00647 3.9608,0 c 0.8045,0 1.4853,0.73008 1.4853,1.59298 l 0,3.45137 c 0,0.86286 -0.6808,1.52662 -1.4853,1.52662 l -3.9608,0 c -0.8046,0 -1.4234,-0.66376 -1.4234,-1.52662 l 0,-3.45137 c 0,-0.8629 0.6188,-1.59298 1.4234,-1.59298 z m 10.2113,0 3.9607,0 c 0.8046,0 1.4855,0.73008 1.4855,1.59298 l 0,3.45137 c 0,0.86286 -0.6809,1.52662 -1.4855,1.52662 l -3.9607,0 c -0.8044,0 -1.4232,-0.66376 -1.4232,-1.52662 l 0,-3.45137 c 0,-0.8629 0.6188,-1.59298 1.4232,-1.59298 z m 10.2115,0 4.0225,0 c 0.8047,0 1.4235,0.73008 1.4235,1.59298 l 0,3.45137 c 0,0.86286 -0.6188,1.52662 -1.4235,1.52662 l -4.0225,0 c -0.8046,0 -1.4236,-0.66376 -1.4236,-1.52662 l 0,-3.45137 c 0,-0.8629 0.619,-1.59298 1.4236,-1.59298 z m -10.397,8.82763 3.9608,0 c 0.8044,0 1.4853,0.66372 1.4853,1.52658 l 0,3.51778 c 0,0.86286 -0.6809,1.5266 -1.4853,1.5266 l -3.9608,0 c -0.8046,0 -1.4236,-0.66374 -1.4236,-1.5266 l 0,-3.51778 c 0,-0.86286 0.619,-1.52658 1.4236,-1.52658 z m 10.2111,0 4.0229,0 c 0.8044,0 1.4233,0.66372 1.4233,1.52658 l 0,3.51778 c 0,0.86286 -0.6189,1.5266 -1.4233,1.5266 l -4.0229,0 c -0.8044,0 -1.4231,-0.66374 -1.4231,-1.5266 l 0,-3.51778 c 0,-0.86286 0.6187,-1.52658 1.4231,-1.52658 z m 10.2734,0 3.9608,0 c 0.8046,0 1.4234,0.66372 1.4234,1.52658 l 0,3.51778 c 0,0.86286 -0.6188,1.5266 -1.4234,1.5266 l -3.9608,0 c -0.8044,0 -1.4854,-0.66374 -1.4854,-1.5266 l 0,-3.51778 c 0,-0.86286 0.681,-1.52658 1.4854,-1.52658 z m -301.88511,2.12392 c 4.978,0.11088 5.3223,8.62853 5.3223,8.62853 l 0,21.0404 -11.5729,0 0.4332,-21.50499 c 0,0 0.8394,-8.27499 5.8174,-8.16394 z m 99.94761,2.12397 c 1.4962,-0.11394 2.8024,1.05024 2.9087,2.65491 l 0.3095,4.97802 c 0.1062,1.60467 -1.0412,3.00552 -2.5374,3.1195 l -5.3841,0.39828 c -1.4963,0.11394 -2.8024,-1.11664 -2.9088,-2.72131 l -0.3095,-4.91163 c -0.1063,-1.60466 1.0413,-3.00552 2.5374,-3.11954 l 5.3842,-0.39823 z m -20.794,2.85402 c 1.4962,-0.11394 2.8023,1.11664 2.9087,2.72131 l 0.3095,4.97802 c 0.1064,1.60467 -1.0413,3.00553 -2.5374,3.11951 l -5.3842,0.39823 c -1.4962,0.11394 -2.8025,-1.1166 -2.9087,-2.72127 l -0.3094,-4.97798 c -0.1063,-1.60471 1.0412,-2.93917 2.5374,-3.05318 l 5.3841,-0.46464 z m 1.1758,17.05792 c 1.4962,-0.11394 2.7405,1.05024 2.847,2.65495 l 0.3712,4.97807 c 0.1064,1.60462 -1.0412,3.0054 -2.5374,3.11942 l -5.3841,0.39827 c -1.4964,0.11465 -2.8024,-1.11656 -2.9087,-2.72123 l -0.3095,-4.91171 c -0.1064,-1.60466 0.9792,-3.00548 2.4753,-3.11954 l 5.4462,-0.39823 z"
       id="path4429"
       sodipodi:nodetypes="ccccccccccccccccccccccccccccccccssccccccccccccccccccccccccccccccccccscccccscccccccscccccsccccccccccccccccccccccccccccccccccccccccccccccccccccccccccccccccccccccccccccccccccccccccccccccccccccccccccccccccccccccccccccccccccccccccccccccccccccccccccccc" />
    <rect
       style="fill:none;stroke:none"
       id="rect4896"
       width="640"
       height="960"
       x="810.75"
       y="355.48718"
       ry="0"
       inkscape:export-filename="/Users/nicke/Desktop/Default.png"
       inkscape:export-xdpi="90"
       inkscape:export-ydpi="90" />
    <text
       xml:space="preserve"
       style="font-size:12px;font-style:normal;font-weight:normal;fill:#ff06a5;fill-opacity:1;stroke:none;font-family:Bitstream Vera Sans"
       x="1023.1285"
       y="510.98355"
       id="text2872"
       inkscape:export-filename="/Users/nicke/Desktop/Default.png"
       inkscape:export-xdpi="90"
       inkscape:export-ydpi="90"><tspan
         sodipodi:role="line"
         id="tspan2874"
         x="1023.1285"
         y="510.98355"
         style="font-size:72px;font-style:normal;font-variant:normal;font-weight:normal;font-stretch:normal;text-align:center;text-anchor:middle;fill:#ff06a5;fill-opacity:1;font-family:Arial Black;-inkscape-font-specification:'Arial Black,'">im</tspan></text>
    <text
       id="text3648"
       y="510.98355"
       x="1071.5325"
       style="font-size:12px;font-style:normal;font-weight:normal;text-align:start;text-anchor:start;fill:#ffffff;fill-opacity:1;stroke:none;font-family:Bitstream Vera Sans"
       xml:space="preserve"
       inkscape:export-filename="/Users/nicke/Desktop/Default.png"
       inkscape:export-xdpi="90"
       inkscape:export-ydpi="90"><tspan
         style="font-size:72px;font-style:normal;font-variant:normal;font-weight:normal;font-stretch:normal;text-align:start;text-anchor:start;fill:#ffffff;fill-opacity:1;stroke:none;font-family:Arial Black;-inkscape-font-specification:'Arial Black,'"
         y="510.98355"
         x="1071.5325"
         id="tspan3650"
         sodipodi:role="line">Pulse</tspan></text>
  </g>
  <g
     inkscape:groupmode="layer"
     id="layer2"
     inkscape:label="Loading"
     style="display:inline">
    <flowRoot
       xml:space="preserve"
       id="flowRoot2864"
       style="font-size:12px;font-style:normal;font-weight:normal;fill:#ffffff;fill-opacity:1;stroke:none;font-family:Bitstream Vera Sans"
       transform="translate(59.59607,0)"><flowRegion
         id="flowRegion2866"><rect
           id="rect2868"
           width="439.73203"
           height="99.43689"
           x="919.23883"
           y="525.09515"
           style="fill:#ffffff" /></flowRegion><flowPara
         id="flowPara2870"
         style="font-size:64px;fill:#ffffff;font-family:Lucida Sans;-inkscape-font-specification:Lucida Sans">Loading...</flowPara></flowRoot>  </g>
  <g
     inkscape:groupmode="layer"
     id="layer3"
     inkscape:label="Textarea"
     style="display:none">
    <rect
       style="fill:#ffffff;fill-opacity:1;stroke:#ff06a5;stroke-width:2;stroke-opacity:1"
       id="rect3663"
       width="448.57086"
       height="267.37476"
       x="908.40442"
       y="406.11859"
       ry="13.258252"
       inkscape:export-filename="/Users/nicke/Desktop/Default.png"
       inkscape:export-xdpi="90"
       inkscape:export-ydpi="90" />
  </g>
</svg>
