<?xml version="1.0" encoding="UTF-8" standalone="no"?>
<!-- Created with Inkscape (http://www.inkscape.org/) -->

<svg
   xmlns:dc="http://purl.org/dc/elements/1.1/"
   xmlns:cc="http://creativecommons.org/ns#"
   xmlns:rdf="http://www.w3.org/1999/02/22-rdf-syntax-ns#"
   xmlns:svg="http://www.w3.org/2000/svg"
   xmlns="http://www.w3.org/2000/svg"
   xmlns:xlink="http://www.w3.org/1999/xlink"
   xmlns:sodipodi="http://sodipodi.sourceforge.net/DTD/sodipodi-0.dtd"
   xmlns:inkscape="http://www.inkscape.org/namespaces/inkscape"
   width="512"
   height="512"
   id="svg2"
   version="1.1"
   inkscape:version="0.47 r22583"
   inkscape:export-filename="/Users/nicke/Desktop/icon_3.png"
   inkscape:export-xdpi="90"
   inkscape:export-ydpi="90"
   sodipodi:docname="logo_512x512.svg">
  <defs
     id="defs4">
    <linearGradient
       id="linearGradient3601">
      <stop
         style="stop-color:#000000;stop-opacity:1;"
         offset="0"
         id="stop3603" />
      <stop
         id="stop3609"
         offset="0.5"
         style="stop-color:#5d5eaf;stop-opacity:1;" />
      <stop
         style="stop-color:#000000;stop-opacity:0;"
         offset="1"
         id="stop3605" />
    </linearGradient>
    <inkscape:perspective
       sodipodi:type="inkscape:persp3d"
       inkscape:vp_x="0 : 526.18109 : 1"
       inkscape:vp_y="0 : 1000 : 0"
       inkscape:vp_z="744.09448 : 526.18109 : 1"
       inkscape:persp3d-origin="372.04724 : 350.78739 : 1"
       id="perspective10" />
    <filter
       inkscape:collect="always"
       id="filter3970"
       x="-0.17498695"
       width="1.3499739"
       y="-0.21267751"
       height="1.425355">
      <feGaussianBlur
         inkscape:collect="always"
         stdDeviation="34.942493"
         id="feGaussianBlur3972" />
    </filter>
    <inkscape:perspective
       id="perspective2923"
       inkscape:persp3d-origin="0.5 : 0.33333333 : 1"
       inkscape:vp_z="1 : 0.5 : 1"
       inkscape:vp_y="0 : 1000 : 0"
       inkscape:vp_x="0 : 0.5 : 1"
       sodipodi:type="inkscape:persp3d" />
    <inkscape:perspective
       id="perspective3004"
       inkscape:persp3d-origin="0.5 : 0.33333333 : 1"
       inkscape:vp_z="1 : 0.5 : 1"
       inkscape:vp_y="0 : 1000 : 0"
       inkscape:vp_x="0 : 0.5 : 1"
       sodipodi:type="inkscape:persp3d" />
    <inkscape:perspective
       sodipodi:type="inkscape:persp3d"
       inkscape:vp_x="0 : 0.5 : 1"
       inkscape:vp_y="0 : 1000 : 0"
       inkscape:vp_z="1 : 0.5 : 1"
       inkscape:persp3d-origin="0.5 : 0.33333333 : 1"
       id="perspective2858" />
    <clipPath
       id="clipPath4865"
       clipPathUnits="userSpaceOnUse">
      <rect
         ry="1.2463979"
         y="300.80869"
         x="212.13203"
         height="197.9899"
         width="321.22852"
         id="rect4867"
         style="fill:#999999;fill-opacity:1;stroke:none" />
    </clipPath>
    <inkscape:perspective
       sodipodi:type="inkscape:persp3d"
       inkscape:vp_x="0 : 0.5 : 1"
       inkscape:vp_y="0 : 1000 : 0"
       inkscape:vp_z="1 : 0.5 : 1"
       inkscape:persp3d-origin="0.5 : 0.33333333 : 1"
       id="perspective4859" />
    <inkscape:perspective
       sodipodi:type="inkscape:persp3d"
       inkscape:vp_x="0 : 0.5 : 1"
       inkscape:vp_y="0 : 1000 : 0"
       inkscape:vp_z="1 : 0.5 : 1"
       inkscape:persp3d-origin="0.5 : 0.33333333 : 1"
       id="perspective4580" />
    <inkscape:perspective
       sodipodi:type="inkscape:persp3d"
       inkscape:vp_x="0 : 0.5 : 1"
       inkscape:vp_y="0 : 1000 : 0"
       inkscape:vp_z="1 : 0.5 : 1"
       inkscape:persp3d-origin="0.5 : 0.33333333 : 1"
       id="perspective4423" />
    <inkscape:perspective
       sodipodi:type="inkscape:persp3d"
       inkscape:vp_x="0 : 0.5 : 1"
       inkscape:vp_y="0 : 1000 : 0"
       inkscape:vp_z="1 : 0.5 : 1"
       inkscape:persp3d-origin="0.5 : 0.33333333 : 1"
       id="perspective4349" />
    <inkscape:perspective
       sodipodi:type="inkscape:persp3d"
       inkscape:vp_x="0 : 0.5 : 1"
       inkscape:vp_y="0 : 1000 : 0"
       inkscape:vp_z="1 : 0.5 : 1"
       inkscape:persp3d-origin="0.5 : 0.33333333 : 1"
       id="perspective3727" />
    <inkscape:perspective
       id="perspective3657"
       inkscape:persp3d-origin="372.04724 : 350.78739 : 1"
       inkscape:vp_z="744.09448 : 526.18109 : 1"
       inkscape:vp_y="0 : 1000 : 0"
       inkscape:vp_x="0 : 526.18109 : 1"
       sodipodi:type="inkscape:persp3d" />
  </defs>
  <sodipodi:namedview
     id="base"
     pagecolor="#ffffff"
     bordercolor="#666666"
     borderopacity="1.0"
     inkscape:pageopacity="0.0"
     inkscape:pageshadow="2"
     inkscape:zoom="0.70710678"
     inkscape:cx="351.21456"
     inkscape:cy="303.69781"
     inkscape:document-units="px"
     inkscape:current-layer="layer2"
     showgrid="false"
     borderlayer="true"
     showguides="true"
     inkscape:guide-bbox="true"
     inkscape:window-width="1280"
     inkscape:window-height="752"
     inkscape:window-x="0"
     inkscape:window-y="0"
     inkscape:window-maximized="0"
     guidetolerance="1">
    <sodipodi:guide
       orientation="0,1"
       position="256,256"
       id="guide3668" />
    <sodipodi:guide
       orientation="1,0"
       position="256,256"
       id="guide2825" />
  </sodipodi:namedview>
  <metadata
     id="metadata7">
    <rdf:RDF>
      <cc:Work
         rdf:about="">
        <dc:format>image/svg+xml</dc:format>
        <dc:type
           rdf:resource="http://purl.org/dc/dcmitype/StillImage" />
        <dc:title></dc:title>
      </cc:Work>
    </rdf:RDF>
  </metadata>
  <g
     inkscape:label="alt1"
     inkscape:groupmode="layer"
     id="layer1"
     transform="translate(0,-540.36218)"
     style="display:inline" />
  <g
     inkscape:groupmode="layer"
     id="layer2"
     inkscape:label="alt2"
     style="display:inline">
    <image
       y="-8.1858521"
       x="-116.86252"
       id="image2925"
       height="744.10767"
       width="992.54749"
       xlink:href="file:///Users/nicke/dev/imPulse/_source/skyline.jpg" />
    <path
       sodipodi:nodetypes="ccccccccccccccccccccccccccccccccssccccccccccccccccccccccccccccccccccscccccscccccccscccccsccccccccccccccccccccccccccccccccccccccccccccccccccccccccccccccccccccccccccccccccccccccccccccccccccccccccccccccccccccccccccccccccccccccccccccccccccccccccccccc"
       id="path4429"
       d="m 460.21905,11.545846 0,47.044269 -16.8241,0 0,18.634013 -7.21902,0.852977 -0.79518,5.314615 -7.15793,1.70591 -0.30575,36.61188 10.21657,5.3146 0.24486,30.11622 -11.25691,2.82137 0.55092,4.2648 11.01195,5.57708 0.55052,3.41186 -12.41904,3.34624 1.40688,4.26484 8.50393,4.46163 -0.24477,4.26485 -9.11553,1.96839 0.30606,5.64268 6.05629,3.34623 0.24486,7.34864 -7.40249,1.96834 0.55042,4.19926 10.46163,3.67428 -0.0603,19.09329 -7.52498,5.64269 -2.38576,-5.5771 -17.68065,-0.0654 1.65196,21.19286 -10.21677,-0.19683 c -0.39591,-0.25073 -17.6683,0.77351 -18.59812,-0.78735 0,-45.43041 -36.81219,-82.2783 -82.16183,-82.2783 -45.35003,0 -82.10083,36.84789 -82.10083,82.2783 0,6.45823 0.17625,8.82812 1.03994,14.566 l -40.25509,-1.57471 -3.60955,-47.63478 -63.74728,7.41423 -0.6729,61.54476 -13.03096,0.85287 -16.76279,-13.12253 -0.7341,-58.06717 -4.16017,4.78971 -22.02401,-116.13441 -13.09206,120.92412 -6.42384,-8.2018 1.22362,51.89973 -9.91082,7.74226 -17.37457,2.62453 -16.70157,1.18102 -0.18343,-23.81747 -7.95314,0.52491 -2.32473,-68.76209 3.12007,-1.50908 -9.4214,-6.36447 -5.99543,-10.30116 -5.20014,-0.39371 -1.16237,-40.74544 6.66839,0.0654 0.18344,-4.65846 -15.60037,-4.52728 -6.17897,-7.21736 2.81418,-4.19925 -3.36478,-4.65852 -1.6518,-6.29877 1.95768,-2.82137 -2.14122,-2.62449 0.12235,-6.56129 c 0,0 6.71353,-2.31439 9.4214,-4.59288 2.76228,-2.32422 7.03547,-7.151768 7.03547,-7.151768 l 3.30361,-1.181048 -5.2613,-3.346227 -4.46599,3.346227 3.30361,1.049825 c 0,0 -3.95329,3.383741 -6.24016,5.117771 -2.32881,1.76587 -7.4637,3.0182 -7.4637,3.0182 l -0.12236,-3.47746 2.38594,-1.57473 -4.77188,-3.543076 -3.793022,3.608676 2.38593,1.37788 -0.183433,3.6743 c 0,0 -7.046017,-2.22577 -8.320209,-2.95256 -1.274201,-0.72679 -2.479894,-2.05071 -3.79302,-4.002365 l 2.814181,-1.443483 -4.771884,-4.133604 -4.527147,4.133604 3.79302,1.509083 c 0,0 0.515638,3.771185 3.487153,5.708325 2.971499,1.93713 11.562618,4.78971 11.562618,4.78971 l 0.611763,6.16758 -1.52943,3.21503 1.95769,3.34624 -0.79532,5.31466 -2.691813,5.3802 2.630642,3.34627 -4.343633,7.67667 -10.88967,5.24902 -1.040035,4.13359 8.075505,0 2.508298,40.87669 -8.136686,0 -1.040002,9.38263 -9.421408,8.98892 5.567183,0.78736 3.303613,71.32097 -2.324766,-0.59054 -1.345919,-12.26956 -7.096634,-2.69011 0,-10.62927 -2.630641,0 0,10.69487 -2.569379,1.83715 -2.141226,-4.65849 -32.363119,6.2332 0,630.85447 642.12343,1.18101 0,-658.60862 -28.08051,-0.45928 -3.48729,20.668 -14.6827,-5.64269 -0.18396,-23.16128 11.22844,-2.26465 0.0287,-4.23098 -6.86087,-3.67434 -0.0711,-7.87349 6.37282,-0.21792 0.83265,-5.60886 -7.1861,-2.5715 0.55061,-8.72647 5.52971,-0.60123 0.27313,-3.93676 -6.35345,-2.81076 0.55061,-8.98896 4.95547,0 0.57424,-4.25422 -10.42416,-5.58756 -0.85658,-29.5913 9.91091,-3.93677 0.24466,-33.20002 -1.34599,-1.96834 0.24476,-7.34864 -10.40024,-0.852968 0,-21.980238 -6.36235,0 0,-47.044266 -2.93666,0 -2.1e-4,6.6e-5 z M -48.16959,143.4929 c 0.97672,-0.0149 1.74439,0.85564 1.77416,1.90279 l 0.6118,20.99603 c 0.0297,1.04711 -0.7363,1.88878 -1.71299,1.90274 l -5.44485,0.0654 c -0.97671,0.0151 -1.74439,-0.79004 -1.77416,-1.83714 l -0.61179,-20.996 c -0.0297,-1.04709 0.73629,-1.8888 1.71298,-1.90276 l 5.44485,-0.13135 0,1.1e-4 0,2e-4 z m 375.63247,87.9866 3.91541,0 c 0.79528,0 1.46829,0.7217 1.46829,1.57471 l 0,3.41183 c 0,0.85296 -0.67301,1.50913 -1.46829,1.50913 l -3.91541,0 c -0.79538,0 -1.40709,-0.65617 -1.40709,-1.50913 l 0,-3.41183 c 0,-0.85301 0.61171,-1.57471 1.40709,-1.57471 z m 10.09429,0 3.91531,0 c 0.79539,0 1.46849,0.7217 1.46849,1.57471 l 0,3.41183 c 0,0.85296 -0.6731,1.50913 -1.46849,1.50913 l -3.91531,0 c -0.79519,0 -1.4069,-0.65617 -1.4069,-1.50913 l 0,-3.41183 c 0,-0.85301 0.61171,-1.57471 1.4069,-1.57471 z m 10.09449,0 3.9764,0 c 0.79549,0 1.4072,0.7217 1.4072,1.57471 l 0,3.41183 c 0,0.85296 -0.61171,1.50913 -1.4072,1.50913 l -3.9764,0 c -0.79538,0 -1.40729,-0.65617 -1.40729,-1.50913 l 0,-3.41183 c 0,-0.85301 0.61191,-1.57471 1.40729,-1.57471 z m -10.27787,8.72646 3.91542,0 c 0.79518,0 1.46828,0.65612 1.46828,1.5091 l 0,3.47747 c 0,0.85296 -0.6731,1.5091 -1.46828,1.5091 l -3.91542,0 c -0.79537,0 -1.40729,-0.65614 -1.40729,-1.5091 l 0,-3.47747 c 0,-0.85298 0.61192,-1.5091 1.40729,-1.5091 z m 10.0941,0 3.97681,0 c 0.79517,0 1.40698,0.65612 1.40698,1.5091 l 0,3.47747 c 0,0.85296 -0.61181,1.5091 -1.40698,1.5091 l -3.97681,0 c -0.79518,0 -1.40679,-0.65614 -1.40679,-1.5091 l 0,-3.47747 c 0,-0.85298 0.61161,-1.5091 1.40679,-1.5091 z m 10.15568,0 3.91541,0 c 0.79539,0 1.4071,0.65612 1.4071,1.5091 l 0,3.47747 c 0,0.85296 -0.61171,1.5091 -1.4071,1.5091 l -3.91541,0 c -0.79518,0 -1.46838,-0.65614 -1.46838,-1.5091 l 0,-3.47747 c 0,-0.85298 0.6732,-1.5091 1.46838,-1.5091 z m -298.42593,2.09959 c 4.92096,0.10965 5.26132,8.52966 5.26132,8.52966 l 0,20.79931 -11.4403,0 0.42823,-21.25858 c 0,0 0.82979,-8.18016 5.75075,-8.07039 z M 158,244.40517 c 1.47905,-0.11267 2.77028,1.03821 2.87536,2.6245 l 0.30596,4.92098 c 0.10497,1.58628 -1.02927,2.97108 -2.50833,3.08375 l -5.32241,0.39371 c -1.47915,0.11269 -2.77027,-1.10384 -2.87546,-2.69011 l -0.30595,-4.85536 c -0.10509,-1.58627 1.02936,-2.97108 2.50832,-3.08379 L 158,244.40517 z m -20.55573,2.82132 c 1.47905,-0.11268 2.77018,1.10384 2.87537,2.69014 l 0.30595,4.92098 c 0.10521,1.58628 -1.02936,2.97109 -2.50833,3.08376 l -5.3225,0.39366 c -1.47906,0.11269 -2.77039,-1.1038 -2.87538,-2.69008 l -0.30584,-4.92095 c -0.1051,-1.58631 1.02927,-2.90548 2.50832,-3.01818 l 5.32241,-0.45933 z m 1.16233,16.86247 c 1.47904,-0.11268 2.70909,1.0382 2.81437,2.62453 l 0.36694,4.92103 c 0.10521,1.58623 -1.02926,2.97096 -2.50832,3.08367 l -5.32241,0.39371 c -1.47925,0.11338 -2.77028,-1.10377 -2.87536,-2.69006 l -0.30595,-4.85542 c -0.10521,-1.58628 0.96798,-2.97104 2.44692,-3.08379 l 5.38381,-0.39367 z"
       style="fill:#404040;fill-opacity:1;stroke:#ff06a5;stroke-width:1.97708273;stroke-linecap:butt;stroke-linejoin:miter;stroke-opacity:1" />
    <rect
       inkscape:export-ydpi="90"
       inkscape:export-xdpi="90"
       inkscape:export-filename="/Users/nicke/Desktop/Default.png"
       ry="0"
       y="-211.05464"
       x="-564.35968"
       height="960"
       width="640"
       id="rect4896"
       style="fill:none;stroke:none" />
    <g
       id="g3135"
       transform="translate(-1.5400616,-1.2218)">
      <text
         xml:space="preserve"
         style="font-size:37.79708862px;font-style:normal;font-weight:normal;fill:#ff06a5;fill-opacity:1;stroke:none;font-family:Bitstream Vera Sans"
         x="170.59761"
         y="462.38831"
         id="text2872"
         inkscape:export-filename="/Users/nicke/Desktop/Default.png"
         inkscape:export-xdpi="90"
         inkscape:export-ydpi="90"><tspan
           sodipodi:role="line"
           id="tspan2874"
           x="170.59761"
           y="462.38831"
           style="font-size:226.78253174px;font-style:normal;font-variant:normal;font-weight:normal;font-stretch:normal;text-align:center;text-anchor:middle;fill:#ff06a5;fill-opacity:1;font-family:Arial Black;-inkscape-font-specification:'Arial Black,'">im</tspan></text>
      <text
         id="text3648"
         y="462.38831"
         x="318.50696"
         style="font-size:39.65916061px;font-style:normal;font-weight:normal;text-align:start;text-anchor:start;fill:#ffffff;fill-opacity:1;stroke:none;font-family:Bitstream Vera Sans"
         xml:space="preserve"
         inkscape:export-filename="/Users/nicke/Desktop/Default.png"
         inkscape:export-xdpi="90"
         inkscape:export-ydpi="90"><tspan
           style="font-size:237.95497131px;font-style:normal;font-variant:normal;font-weight:normal;font-stretch:normal;text-align:start;text-anchor:start;fill:#ffffff;fill-opacity:1;stroke:none;font-family:Arial Black;-inkscape-font-specification:'Arial Black,'"
           y="462.38831"
           x="318.50696"
           id="tspan3650"
           sodipodi:role="line">P</tspan></text>
    </g>
    <g
       id="layer3"
       inkscape:label="Textarea"
       style="display:none"
       transform="translate(-1578.7564,-222.06189)">
      <rect
         style="fill:#ffffff;fill-opacity:1;stroke:#ff06a5;stroke-width:2;stroke-opacity:1"
         id="rect3663"
         width="448.57086"
         height="267.37476"
         x="908.40442"
         y="406.11859"
         ry="13.258252"
         inkscape:export-filename="/Users/nicke/Desktop/Default.png"
         inkscape:export-xdpi="90"
         inkscape:export-ydpi="90" />
    </g>
  </g>
</svg>
